<svg xmlns="http://www.w3.org/2000/svg" viewBox="0 0 444.21 444.21">
    <defs>
        <style>
            .cls-1 {
                fill:#efefef;
            }

            .cls-2 {
                fill: #fff;
            }
        </style>
    </defs>
    <title>gear--4</title>
    <g id="レイヤー_2" data-name="レイヤー 2">
        <g id="レイヤー_1-2" data-name="レイヤー 1">
            <g id="gear--4">
                <path class="cls-1"
                    d="M386.77,307.9c-47.39,90.94-159.52,126.25-250.46,78.87S10.06,227.25,57.44,136.31,217,10.06,307.9,57.44,434.15,217,386.77,307.9" />
                <path class="cls-2" d="M339.14,283.09a132,132,0,1,1-56.06-178,132,132,0,0,1,56.06,178" />
                <polygon class="cls-1" points="323.12 92.27 270.63 64.92 312.37 18.29 337.42 31.34 323.12 92.27" />
                <polygon class="cls-1" points="379.29 270.63 351.94 323.12 412.87 337.42 425.92 312.37 379.29 270.63" />
                <polygon class="cls-1" points="121.2 351.72 173.69 379.07 131.95 425.7 106.9 412.65 121.2 351.72" />
                <polygon class="cls-1" points="65.13 173.69 92.48 121.19 31.56 106.9 18.51 131.95 65.13 173.69" />
                <polygon class="cls-1" points="385.87 201.56 368.09 145.11 429.38 142.03 437.87 168.97 385.87 201.56" />
                <polygon class="cls-1" points="299.1 368.09 242.65 385.87 275.24 437.87 302.18 429.38 299.1 368.09" />
                <polygon class="cls-1" points="58.34 242.65 76.12 299.1 14.83 302.18 6.34 275.24 58.34 242.65" />
                <polygon class="cls-1" points="145.11 76.12 201.56 58.34 168.97 6.34 142.03 14.83 145.11 76.12" />
                <polygon class="cls-1" points="366.07 141.39 328.33 95.79 383.95 69.84 401.96 91.61 366.07 141.39" />
                <polygon class="cls-1" points="348.42 328.33 302.82 366.07 352.6 401.96 374.36 383.95 348.42 328.33" />
                <polygon class="cls-1" points="78.14 302.82 115.88 348.42 60.26 374.36 42.25 352.6 78.14 302.82" />
                <polygon class="cls-1" points="95.79 115.88 141.39 78.14 91.61 42.25 69.85 60.26 95.79 115.88" />
                <polygon class="cls-1" points="380.98 266.82 386.54 207.9 444.21 228.88 441.55 257 380.98 266.82" />
                <polygon class="cls-1" points="236.31 386.54 177.38 380.98 187.2 441.55 215.33 444.21 236.31 386.54" />
                <polygon class="cls-1" points="63.23 177.38 57.67 236.31 0 215.33 2.66 187.2 63.23 177.38" />
                <polygon class="cls-1" points="207.9 57.67 266.83 63.23 257 2.65 228.88 0 207.9 57.67" />
                <path class="cls-2" d="M181.92,214.34A40.43,40.43,0,1,0,229.75,183,40.43,40.43,0,0,0,181.92,214.34Z" />
                <path class="cls-1"
                    d="M221.55,283h0a61.2,61.2,0,0,1-12.35-1.27,60.38,60.38,0,0,1-46.8-71.42,60.3,60.3,0,0,1,71.41-46.8,60.38,60.38,0,0,1,46.81,71.41A60.6,60.6,0,0,1,221.55,283Zm-.08-80.88a20.5,20.5,0,0,0-17.1,31.73,20.34,20.34,0,0,0,13,8.82,20.86,20.86,0,0,0,4.22.44,20.49,20.49,0,0,0,4.13-40.55A20.76,20.76,0,0,0,221.47,202.08Z" />
            </g>
        </g>
    </g>
</svg>