<?xml version="1.0" encoding="UTF-8" standalone="no"?>
<svg
   xmlns:dc="http://purl.org/dc/elements/1.1/"
   xmlns:cc="http://creativecommons.org/ns#"
   xmlns:rdf="http://www.w3.org/1999/02/22-rdf-syntax-ns#"
   xmlns:svg="http://www.w3.org/2000/svg"
   xmlns="http://www.w3.org/2000/svg"
   xmlns:sodipodi="http://sodipodi.sourceforge.net/DTD/sodipodi-0.dtd"
   xmlns:inkscape="http://www.inkscape.org/namespaces/inkscape"
   sodipodi:docname="gear.svg"
   inkscape:version="1.0beta2 (2b71d25, 2019-12-03)"
   id="svg8"
   version="1.1"
   viewBox="0 0 411.53647 420.56977"
   height="420.56976mm"
   width="411.53647mm">
  <defs
     id="defs2">
    <clipPath
       clipPathUnits="userSpaceOnUse"
       id="clipPath26">
      <path
         d="M 0,1217.008 H 1617.008 V 0 H 0 Z"
         id="path24"
         inkscape:connector-curvature="0" />
    </clipPath>
  </defs>
  <sodipodi:namedview
     inkscape:snap-nodes="true"
     inkscape:snap-bbox="false"
     inkscape:window-maximized="0"
     inkscape:window-y="23"
     inkscape:window-x="0"
     inkscape:window-height="880"
     inkscape:window-width="1605"
     showgrid="false"
     inkscape:document-rotation="0"
     inkscape:current-layer="layer1"
     inkscape:document-units="mm"
     inkscape:cy="1121.1869"
     inkscape:cx="926.7626"
     inkscape:zoom="0.18950163"
     inkscape:pageshadow="2"
     inkscape:pageopacity="0.0"
     borderopacity="1.0"
     bordercolor="#666666"
     pagecolor="#ffffff"
     id="base" />
  <metadata
     id="metadata5">
    <rdf:RDF>
      <cc:Work
         rdf:about="">
        <dc:format>image/svg+xml</dc:format>
        <dc:type
           rdf:resource="http://purl.org/dc/dcmitype/StillImage" />
        <dc:title></dc:title>
      </cc:Work>
    </rdf:RDF>
  </metadata>
  <g
     transform="translate(332.57739,88.260337)"
     style="opacity:1"
     id="layer1"
     inkscape:groupmode="layer"
     inkscape:label="レイヤー 1">
    <g
       id="g22"
       clip-path="url(#clipPath26)"
       transform="matrix(0.07912854,0.34378893,0.34378893,-0.07912854,-387.95185,-121.23933)">
      <g
         id="g28"
         transform="translate(780.0093,215.418)">
        <path
           d="m 0,0 c -99.667,-128.146 -284.347,-151.231 -412.491,-51.563 -128.145,99.667 -151.23,284.346 -51.561,412.49 99.667,128.145 284.345,151.23 412.49,51.562 C 76.583,312.823 99.667,128.144 0,0"
           style="fill:#eee;fill-opacity:1;fill-rule:nonzero;stroke:none"
           id="path30"
           inkscape:connector-curvature="0" />
      </g>
      <g
         id="g32"
         transform="translate(726.4653,257.0635)">
        <path
           d="m 0,0 c -76.668,-98.573 -218.728,-116.332 -317.3,-39.665 -98.574,76.668 -116.33,218.728 -39.663,317.302 76.667,98.572 218.726,116.329 317.299,39.663 C 58.908,240.632 76.667,98.573 0,0"
           style="fill:#ffffff;fill-opacity:1;fill-rule:nonzero;stroke:none"
           id="path34"
           inkscape:connector-curvature="0" />
      </g>
      <g
         id="g36"
         transform="translate(742.4526,569.6006)">
        <path
           d="M 0,0 -73.966,57.529 3.861,117.7 39.162,90.245 Z"
           style="fill:#eee;fill-opacity:1;fill-rule:nonzero;stroke:none"
           id="path38"
           inkscape:connector-curvature="0" />
      </g>
      <g
         id="g40"
         transform="translate(779.2319,275.3779)">
        <path
           d="m 0,0 -57.529,-73.967 90.246,-39.161 27.452,35.3 z"
           style="fill:#eee;fill-opacity:1;fill-rule:nonzero;stroke:none"
           id="path42"
           inkscape:connector-curvature="0" />
      </g>
      <g
         id="g44"
         transform="translate(353.5137,222.1611)">
        <path
           d="m 0,0 73.967,-57.529 -77.83,-60.17 -35.298,27.454 z"
           style="fill:#eee;fill-opacity:1;fill-rule:nonzero;stroke:none"
           id="path46"
           inkscape:connector-curvature="0" />
      </g>
      <g
         id="g48"
         transform="translate(316.7358,516.3848)">
        <path
           d="m 0,0 57.526,73.967 -90.243,39.16 -27.456,-35.298 z"
           style="fill:#eee;fill-opacity:1;fill-rule:nonzero;stroke:none"
           id="path50"
           inkscape:connector-curvature="0" />
      </g>
      <g
         id="g52"
         transform="translate(808.8623,381.2764)">
        <path
           d="M 0,0 -11.623,92.98 84.703,80.337 90.251,35.964 Z"
           style="fill:#eee;fill-opacity:1;fill-rule:nonzero;stroke:none"
           id="path54"
           inkscape:connector-curvature="0" />
      </g>
      <g
         id="g56"
         transform="translate(626.3579,146.624)">
        <path
           d="m 0,0 -92.981,-11.621 35.965,-90.252 44.374,5.547 z"
           style="fill:#eee;fill-opacity:1;fill-rule:nonzero;stroke:none"
           id="path58"
           inkscape:connector-curvature="0" />
      </g>
      <g
         id="g60"
         transform="translate(287.1035,410.4873)">
        <path
           d="m 0,0 11.622,-92.98 -96.326,12.641 -5.547,44.372 z"
           style="fill:#eee;fill-opacity:1;fill-rule:nonzero;stroke:none"
           id="path62"
           inkscape:connector-curvature="0" />
      </g>
      <g
         id="g64"
         transform="translate(469.6074,645.1387)">
        <path
           d="M 0,0 92.983,11.621 57.016,101.873 12.642,96.326 Z"
           style="fill:#eee;fill-opacity:1;fill-rule:nonzero;stroke:none"
           id="path66"
           inkscape:connector-curvature="0" />
      </g>
      <g
         id="g68"
         transform="translate(795.1465,480.6221)">
        <path
           d="M 0,0 -45.792,81.754 48.202,106.329 70.055,67.315 Z"
           style="fill:#eee;fill-opacity:1;fill-rule:nonzero;stroke:none"
           id="path70"
           inkscape:connector-curvature="0" />
      </g>
      <g
         id="g72"
         transform="translate(714.4775,194.5088)">
        <path
           d="m 0,0 -81.753,-45.791 67.314,-70.055 39.012,21.853 z"
           style="fill:#eee;fill-opacity:1;fill-rule:nonzero;stroke:none"
           id="path74"
           inkscape:connector-curvature="0" />
      </g>
      <g
         id="g76"
         transform="translate(300.8188,311.1406)">
        <path
           d="m 0,0 45.791,-81.753 -93.992,-24.576 -21.854,39.016 z"
           style="fill:#eee;fill-opacity:1;fill-rule:nonzero;stroke:none"
           id="path78"
           inkscape:connector-curvature="0" />
      </g>
      <g
         id="g80"
         transform="translate(381.4878,597.2539)">
        <path
           d="M 0,0 81.753,45.791 14.44,115.846 -24.574,93.993 Z"
           style="fill:#eee;fill-opacity:1;fill-rule:nonzero;stroke:none"
           id="path82"
           inkscape:connector-curvature="0" />
      </g>
      <g
         id="g84"
         transform="translate(782.6753,281.0303)">
        <path
           d="M 0,0 25.429,90.189 109.268,41.103 97.134,-1.937 Z"
           style="fill:#eee;fill-opacity:1;fill-rule:nonzero;stroke:none"
           id="path86"
           inkscape:connector-curvature="0" />
      </g>
      <g
         id="g88"
         transform="translate(523.3213,135.7607)">
        <path
           d="m 0,0 -90.189,25.428 -1.938,-97.134 43.039,-12.136 z"
           style="fill:#eee;fill-opacity:1;fill-rule:nonzero;stroke:none"
           id="path90"
           inkscape:connector-curvature="0" />
      </g>
      <g
         id="g92"
         transform="translate(313.29,510.7324)">
        <path
           d="m 0,0 -25.428,-90.189 -83.841,49.087 12.135,43.039 z"
           style="fill:#eee;fill-opacity:1;fill-rule:nonzero;stroke:none"
           id="path94"
           inkscape:connector-curvature="0" />
      </g>
      <g
         id="g96"
         transform="translate(572.645,656.002)">
        <path
           d="M 0,0 90.188,-25.428 92.125,71.706 49.086,83.841 Z"
           style="fill:#eee;fill-opacity:1;fill-rule:nonzero;stroke:none"
           id="path98"
           inkscape:connector-curvature="0" />
      </g>
      <g
         id="g100"
         transform="translate(1367.3096,466.5801)">
        <path
           d="m 0,0 c -65.291,-125.307 -219.8,-173.96 -345.105,-108.671 -125.307,65.287 -173.96,219.797 -108.671,345.105 65.289,125.306 219.797,173.96 345.104,108.671 C 16.634,279.813 65.287,125.307 0,0"
           style="fill:#eee;fill-opacity:1;fill-rule:nonzero;stroke:none"
           id="path102"
           inkscape:connector-curvature="0" />
      </g>
      <g
         id="g104"
         transform="translate(1314.9502,493.8623)">
        <path
           d="m 0,0 c -50.224,-96.392 -169.076,-133.817 -265.465,-83.595 -96.389,50.223 -133.816,169.075 -83.593,265.465 50.223,96.39 169.076,133.816 265.465,83.593 C 12.796,215.241 50.223,96.388 0,0"
           style="fill:#ffffff;fill-opacity:1;fill-rule:nonzero;stroke:none"
           id="path106"
           inkscape:connector-curvature="0" />
      </g>
      <g
         id="g108"
         transform="translate(1279.6143,763.6938)">
        <path
           d="m 0,0 -72.327,37.685 57.512,64.246 34.517,-17.984 z"
           style="fill:#eee;fill-opacity:1;fill-rule:nonzero;stroke:none"
           id="path110"
           inkscape:connector-curvature="0" />
      </g>
      <g
         id="g112"
         transform="translate(1357.0029,517.9307)">
        <path
           d="m 0,0 -37.687,-72.326 83.949,-19.701 17.984,34.514 z"
           style="fill:#eee;fill-opacity:1;fill-rule:nonzero;stroke:none"
           id="path114"
           inkscape:connector-curvature="0" />
      </g>
      <g
         id="g116"
         transform="translate(1001.3799,406.1943)">
        <path
           d="M 0,0 72.328,-37.686 14.815,-101.932 -19.7,-83.946 Z"
           style="fill:#eee;fill-opacity:1;fill-rule:nonzero;stroke:none"
           id="path118"
           inkscape:connector-curvature="0" />
      </g>
      <g
         id="g120"
         transform="translate(924.1338,651.5088)">
        <path
           d="M 0,0 37.686,72.327 -46.263,92.028 -64.246,57.512 Z"
           style="fill:#eee;fill-opacity:1;fill-rule:nonzero;stroke:none"
           id="path122"
           inkscape:connector-curvature="0" />
      </g>
      <g
         id="g124"
         transform="translate(1366.0674,613.0986)">
        <path
           d="m 0,0 -24.495,77.792 84.45,4.243 11.69,-37.124 z"
           style="fill:#eee;fill-opacity:1;fill-rule:nonzero;stroke:none"
           id="path126"
           inkscape:connector-curvature="0" />
      </g>
      <g
         id="g128"
         transform="translate(1246.5137,383.6455)">
        <path
           d="M 0,0 -77.791,-24.495 -32.88,-96.144 4.243,-84.452 Z"
           style="fill:#eee;fill-opacity:1;fill-rule:nonzero;stroke:none"
           id="path130"
           inkscape:connector-curvature="0" />
      </g>
      <g
         id="g132"
         transform="translate(914.7734,556.4941)">
        <path
           d="m 0,0 24.497,-77.791 -84.453,-4.243 -11.689,37.124 z"
           style="fill:#eee;fill-opacity:1;fill-rule:nonzero;stroke:none"
           id="path134"
           inkscape:connector-curvature="0" />
      </g>
      <g
         id="g136"
         transform="translate(1034.3281,785.9473)">
        <path
           d="M 0,0 77.791,24.495 32.879,96.143 -4.245,84.453 Z"
           style="fill:#eee;fill-opacity:1;fill-rule:nonzero;stroke:none"
           id="path138"
           inkscape:connector-curvature="0" />
      </g>
      <g
         id="g140"
         transform="translate(1338.7852,696.0137)">
        <path
           d="M 0,0 -51.995,62.833 24.638,98.577 49.449,68.59 Z"
           style="fill:#eee;fill-opacity:1;fill-rule:nonzero;stroke:none"
           id="path142"
           inkscape:connector-curvature="0" />
      </g>
      <g
         id="g144"
         transform="translate(1314.4707,438.4268)">
        <path
           d="m 0,0 -62.833,-51.993 68.591,-49.453 29.986,24.814 z"
           style="fill:#eee;fill-opacity:1;fill-rule:nonzero;stroke:none"
           id="path146"
           inkscape:connector-curvature="0" />
      </g>
      <g
         id="g148"
         transform="translate(942.0576,473.5791)">
        <path
           d="M 0,0 51.994,-62.832 -24.639,-98.575 -49.45,-68.591 Z"
           style="fill:#eee;fill-opacity:1;fill-rule:nonzero;stroke:none"
           id="path150"
           inkscape:connector-curvature="0" />
      </g>
      <g
         id="g152"
         transform="translate(966.3701,731.166)">
        <path
           d="M 0,0 62.834,51.995 -5.758,101.444 -35.743,76.631 Z"
           style="fill:#eee;fill-opacity:1;fill-rule:nonzero;stroke:none"
           id="path154"
           inkscape:connector-curvature="0" />
      </g>
      <g
         id="g156"
         transform="translate(1359.3281,523.1738)">
        <path
           d="M 0,0 7.663,81.196 87.125,52.284 83.469,13.534 Z"
           style="fill:#eee;fill-opacity:1;fill-rule:nonzero;stroke:none"
           id="path158"
           inkscape:connector-curvature="0" />
      </g>
      <g
         id="g160"
         transform="translate(1159.9932,358.2256)">
        <path
           d="m 0,0 -81.194,7.663 13.535,-83.468 38.749,-3.657 z"
           style="fill:#eee;fill-opacity:1;fill-rule:nonzero;stroke:none"
           id="path162"
           inkscape:connector-curvature="0" />
      </g>
      <g
         id="g164"
         transform="translate(921.5146,646.4185)">
        <path
           d="m 0,0 -7.664,-81.195 -79.462,28.911 3.657,38.751 z"
           style="fill:#eee;fill-opacity:1;fill-rule:nonzero;stroke:none"
           id="path166"
           inkscape:connector-curvature="0" />
      </g>
      <g
         id="g168"
         transform="translate(1120.8467,811.3682)">
        <path
           d="M 0,0 81.195,-7.664 67.662,75.802 28.912,79.46 Z"
           style="fill:#eee;fill-opacity:1;fill-rule:nonzero;stroke:none"
           id="path170"
           inkscape:connector-curvature="0" />
      </g>
      <g
         id="g172"
         transform="translate(947.1055,864.7632)">
        <path
           d="m 0,0 c -47.385,-90.943 -159.519,-126.251 -250.462,-78.869 -90.939,47.385 -126.251,159.519 -78.866,250.461 47.383,90.941 159.519,126.252 250.46,78.867 C 12.072,203.077 47.383,90.941 0,0"
           style="fill:#eee;fill-opacity:1;fill-rule:nonzero;stroke:none"
           id="path174"
           inkscape:connector-curvature="0" />
      </g>
      <g
         id="g176"
         transform="translate(899.4785,889.5771)">
        <path
           d="m 0,0 c -33.679,-64.637 -113.38,-89.734 -178.018,-56.056 -64.637,33.679 -89.735,113.381 -56.056,178.018 33.678,64.638 113.379,89.735 178.016,56.056 C 8.581,144.339 33.677,64.638 0,0"
           style="fill:#ffffff;fill-opacity:1;fill-rule:nonzero;stroke:none"
           id="path178"
           inkscape:connector-curvature="0" />
      </g>
      <g
         id="g180"
         transform="translate(883.46,1080.3936)">
        <path
           d="M 0,0 -52.49,27.349 -10.751,73.977 14.298,60.924 Z"
           style="fill:#eee;fill-opacity:1;fill-rule:nonzero;stroke:none"
           id="path182"
           inkscape:connector-curvature="0" />
      </g>
      <g
         id="g184"
         transform="translate(939.627,902.0303)">
        <path
           d="m 0,0 -27.351,-52.492 60.925,-14.299 13.052,25.052 z"
           style="fill:#eee;fill-opacity:1;fill-rule:nonzero;stroke:none"
           id="path186"
           inkscape:connector-curvature="0" />
      </g>
      <g
         id="g188"
         transform="translate(681.5332,820.9385)">
        <path
           d="m 0,0 52.492,-27.351 -41.74,-46.628 -25.051,13.053 z"
           style="fill:#eee;fill-opacity:1;fill-rule:nonzero;stroke:none"
           id="path190"
           inkscape:connector-curvature="0" />
      </g>
      <g
         id="g192"
         transform="translate(625.4697,998.9751)">
        <path
           d="M 0,0 27.352,52.493 -33.574,66.79 -46.627,41.74 Z"
           style="fill:#eee;fill-opacity:1;fill-rule:nonzero;stroke:none"
           id="path194"
           inkscape:connector-curvature="0" />
      </g>
      <g
         id="g196"
         transform="translate(946.2041,971.0991)">
        <path
           d="m 0,0 -17.775,56.458 61.288,3.079 8.484,-26.942 z"
           style="fill:#eee;fill-opacity:1;fill-rule:nonzero;stroke:none"
           id="path198"
           inkscape:connector-curvature="0" />
      </g>
      <g
         id="g200"
         transform="translate(859.4375,804.5718)">
        <path
           d="m 0,0 -56.456,-17.777 32.594,-51.997 26.943,8.484 z"
           style="fill:#eee;fill-opacity:1;fill-rule:nonzero;stroke:none"
           id="path202"
           inkscape:connector-curvature="0" />
      </g>
      <g
         id="g204"
         transform="translate(618.6763,930.0181)">
        <path
           d="m 0,0 17.778,-56.456 -61.29,-3.08 -8.483,26.941 z"
           style="fill:#eee;fill-opacity:1;fill-rule:nonzero;stroke:none"
           id="path206"
           inkscape:connector-curvature="0" />
      </g>
      <g
         id="g208"
         transform="translate(705.4424,1096.5449)">
        <path
           d="M 0,0 56.459,17.777 23.864,69.775 -3.08,61.29 Z"
           style="fill:#eee;fill-opacity:1;fill-rule:nonzero;stroke:none"
           id="path210"
           inkscape:connector-curvature="0" />
      </g>
      <g
         id="g212"
         transform="translate(926.4043,1031.2749)">
        <path
           d="M 0,0 -37.736,45.601 17.881,71.543 35.889,49.78 Z"
           style="fill:#eee;fill-opacity:1;fill-rule:nonzero;stroke:none"
           id="path214"
           inkscape:connector-curvature="0" />
      </g>
      <g
         id="g216"
         transform="translate(908.7578,844.3311)">
        <path
           d="m 0,0 -45.601,-37.736 49.78,-35.888 21.762,18.007 z"
           style="fill:#eee;fill-opacity:1;fill-rule:nonzero;stroke:none"
           id="path218"
           inkscape:connector-curvature="0" />
      </g>
      <g
         id="g220"
         transform="translate(638.4771,869.8428)">
        <path
           d="m 0,0 37.736,-45.601 -55.615,-25.942 -18.01,21.764 z"
           style="fill:#eee;fill-opacity:1;fill-rule:nonzero;stroke:none"
           id="path222"
           inkscape:connector-curvature="0" />
      </g>
      <g
         id="g224"
         transform="translate(656.1226,1056.7866)">
        <path
           d="M 0,0 45.602,37.735 -4.177,73.625 -25.94,55.615 Z"
           style="fill:#eee;fill-opacity:1;fill-rule:nonzero;stroke:none"
           id="path226"
           inkscape:connector-curvature="0" />
      </g>
      <g
         id="g228"
         transform="translate(941.3145,905.8374)">
        <path
           d="M 0,0 5.561,58.926 63.231,37.944 60.575,9.821 Z"
           style="fill:#eee;fill-opacity:1;fill-rule:nonzero;stroke:none"
           id="path230"
           inkscape:connector-curvature="0" />
      </g>
      <g
         id="g232"
         transform="translate(796.6475,786.1255)">
        <path
           d="m 0,0 -58.93,5.562 9.823,-60.579 28.123,-2.654 z"
           style="fill:#eee;fill-opacity:1;fill-rule:nonzero;stroke:none"
           id="path234"
           inkscape:connector-curvature="0" />
      </g>
      <g
         id="g236"
         transform="translate(623.5684,995.2817)">
        <path
           d="m 0,0 -5.563,-58.929 -57.669,20.984 2.657,28.122 z"
           style="fill:#eee;fill-opacity:1;fill-rule:nonzero;stroke:none"
           id="path238"
           inkscape:connector-curvature="0" />
      </g>
      <g
         id="g240"
         transform="translate(768.2358,1114.9937)">
        <path
           d="m 0,0 58.928,-5.563 -9.824,60.578 -28.12,2.654 z"
           style="fill:#eee;fill-opacity:1;fill-rule:nonzero;stroke:none"
           id="path242"
           inkscape:connector-curvature="0" />
      </g>
      <g
         id="g244"
         transform="translate(474.7617,759.9536)">
        <path
           d="m 0,0 c -51.67,-2.102 -95.263,38.082 -97.365,89.753 -2.103,51.672 38.08,95.264 89.754,97.367 51.67,2.103 95.262,-38.083 97.364,-89.754 C 91.857,45.694 51.673,2.102 0,0"
           style="fill:#eee;fill-opacity:1;fill-rule:nonzero;stroke:none"
           id="path246"
           inkscape:connector-curvature="0" />
      </g>
      <g
         id="g248"
         transform="translate(477.3901,884.2793)">
        <path
           d="M 0,0 C -2.516,0.525 -5.113,0.738 -7.713,0.632 -16.099,0.29 -23.85,-3.296 -29.538,-9.469 c -5.689,-6.17 -8.636,-14.187 -8.293,-22.575 0.587,-14.426 10.851,-26.552 24.963,-29.489 2.518,-0.524 5.113,-0.737 7.713,-0.63 17.312,0.705 30.822,15.363 30.118,32.674 C 24.378,-15.063 14.111,-2.937 0,0 m -15.855,-75.885 c -20.701,4.31 -35.763,22.096 -36.623,43.246 -0.5,12.297 3.819,24.055 12.162,33.107 8.342,9.048 19.71,14.309 32.009,14.809 3.799,0.155 7.598,-0.157 11.293,-0.925 20.702,-4.309 35.763,-22.091 36.624,-43.245 1.031,-25.389 -18.783,-46.882 -44.173,-47.917 -3.799,-0.155 -7.598,0.157 -11.292,0.925 -10e-4,0.002 0.001,0 0,0"
           style="fill:#ffffff;fill-opacity:1;fill-rule:nonzero;stroke:none"
           id="path250"
           inkscape:connector-curvature="0" />
      </g>
      <g
         id="g252"
         transform="translate(538.1309,814.7549)">
        <path
           d="M 0,0 6.917,60.855 55.531,39.218 52.231,10.175 Z"
           style="fill:#eee;fill-opacity:1;fill-rule:nonzero;stroke:none"
           id="path254"
           inkscape:connector-curvature="0" />
      </g>
      <g
         id="g256"
         transform="translate(493.624,779.1299)">
        <path
           d="m 0,0 -60.852,6.917 10.174,-52.231 29.042,-3.301 z"
           style="fill:#eee;fill-opacity:1;fill-rule:nonzero;stroke:none"
           id="path258"
           inkscape:connector-curvature="0" />
      </g>
      <g
         id="g260"
         transform="translate(403.9321,892.2549)">
        <path
           d="m 0,0 -6.917,-60.854 -48.614,21.636 3.3,29.043 z"
           style="fill:#eee;fill-opacity:1;fill-rule:nonzero;stroke:none"
           id="path262"
           inkscape:connector-curvature="0" />
      </g>
      <g
         id="g264"
         transform="translate(448.2183,927.2969)">
        <path
           d="m 0,0 60.855,-6.916 -10.176,52.231 -29.041,3.3 z"
           style="fill:#eee;fill-opacity:1;fill-rule:nonzero;stroke:none"
           id="path266"
           inkscape:connector-curvature="0" />
      </g>
      <g
         id="g268"
         transform="translate(491.2793,778.5459)">
        <path
           d="M 0,0 47.923,38.14 66.998,-11.535 44.128,-29.737 Z"
           style="fill:#eee;fill-opacity:1;fill-rule:nonzero;stroke:none"
           id="path270"
           inkscape:connector-curvature="0" />
      </g>
      <g
         id="g272"
         transform="translate(434.6187,784.8257)">
        <path
           d="M 0,0 -38.139,47.921 -67.877,3.792 -49.676,-19.077 Z"
           style="fill:#eee;fill-opacity:1;fill-rule:nonzero;stroke:none"
           id="path274"
           inkscape:connector-curvature="0" />
      </g>
      <g
         id="g276"
         transform="translate(451.1865,928.2393)">
        <path
           d="m 0,0 -47.92,-38.14 -19.077,49.676 22.871,18.203 z"
           style="fill:#eee;fill-opacity:1;fill-rule:nonzero;stroke:none"
           id="path278"
           inkscape:connector-curvature="0" />
      </g>
      <g
         id="g280"
         transform="translate(507.2822,921.7041)">
        <path
           d="m 0,0 38.14,-47.922 29.735,44.129 -18.2,22.87 z"
           style="fill:#eee;fill-opacity:1;fill-rule:nonzero;stroke:none"
           id="path282"
           inkscape:connector-curvature="0" />
      </g>
      <g
         id="g284"
         transform="translate(1081.9297,596.9717)">
        <path
           d="m 0,0 c -6.723,-32.304 14.012,-63.94 46.315,-70.665 32.304,-6.724 63.942,14.011 70.665,46.314 C 123.706,7.954 102.97,39.591 70.667,46.314 38.363,53.039 6.725,32.304 0,0"
           style="fill:#ffffff;fill-opacity:1;fill-rule:nonzero;stroke:none"
           id="path286"
           inkscape:connector-curvature="0" />
      </g>
      <g
         id="g288"
         transform="translate(1140.3604,621.2832)">
        <path
           d="m 0,0 c -17.152,0 -32.146,-12.219 -35.649,-29.054 -4.098,-19.69 8.587,-39.043 28.276,-43.142 2.477,-0.516 4.999,-0.778 7.495,-0.778 17.15,0 32.142,12.218 35.648,29.053 1.985,9.54 0.137,19.28 -5.203,27.429 C 25.227,-8.344 17.032,-2.763 7.494,-0.777 5.017,-0.262 2.494,0 0,0 M 0.125,-119.513 H 0.12 c -5.676,0.002 -11.387,0.591 -16.977,1.754 -44.813,9.33 -73.682,53.378 -64.355,98.19 7.975,38.305 42.13,66.108 81.212,66.108 5.674,0 11.387,-0.591 16.979,-1.755 C 38.687,40.266 57.335,27.565 69.489,9.02 81.646,-9.525 85.85,-31.695 81.331,-53.404 73.358,-91.709 39.205,-119.513 0.125,-119.513"
           style="fill:#eee;fill-opacity:1;fill-rule:nonzero;stroke:none"
           id="path290"
           inkscape:connector-curvature="0" />
      </g>
      <g
         id="g292"
         transform="translate(502.9448,405.1104)">
        <path
           d="m 0,0 c -4.755,-22.842 9.959,-45.294 32.803,-50.048 22.842,-4.755 45.295,9.959 50.05,32.802 C 87.608,5.597 72.892,28.05 50.05,32.804 27.207,37.56 4.754,22.845 0,0 M -52.072,10.841 C -41.339,62.394 9.333,95.608 60.887,84.875 112.443,74.143 145.654,23.47 134.923,-28.083 124.192,-79.639 73.519,-112.85 21.963,-102.12 -29.59,-91.388 -62.804,-40.714 -52.072,10.841"
           style="fill:#eee;fill-opacity:1;fill-rule:nonzero;stroke:none"
           id="path294"
           inkscape:connector-curvature="0" />
      </g>
      <g
         id="g296"
         transform="translate(742.2603,958.3257)">
        <path
           d="m 0,0 c -4.551,-21.859 9.482,-43.271 31.344,-47.821 21.859,-4.55 43.271,9.482 47.822,31.343 C 83.715,5.382 69.683,26.794 47.822,31.344 25.961,35.895 4.55,21.861 0,0"
           style="fill:#ffffff;fill-opacity:1;fill-rule:nonzero;stroke:none"
           id="path298"
           inkscape:connector-curvature="0" />
      </g>
      <g
         id="g300"
         transform="translate(781.8018,970.5811)">
        <path
           d="m 0,0 c -9.629,0 -18.047,-6.862 -20.015,-16.319 -1.114,-5.358 -0.077,-10.829 2.922,-15.405 3,-4.577 7.602,-7.712 12.959,-8.826 1.397,-0.291 2.814,-0.438 4.217,-0.438 9.628,0 18.046,6.862 20.014,16.319 1.115,5.357 0.077,10.829 -2.922,15.406 -3,4.575 -7.602,7.71 -12.959,8.825 C 2.819,-0.146 1.4,0 0,0 M 0.084,-80.878 H 0.082 c -4.129,0.001 -8.281,0.429 -12.344,1.274 -15.789,3.287 -29.353,12.526 -38.195,26.013 -8.84,13.489 -11.897,29.613 -8.611,45.402 5.799,27.858 30.641,48.079 59.068,48.079 4.126,0 8.28,-0.429 12.344,-1.275 15.79,-3.286 29.353,-12.524 38.194,-26.013 8.84,-13.487 11.899,-29.611 8.612,-45.399 -5.798,-27.86 -30.64,-48.081 -59.066,-48.081"
           style="fill:#eee;fill-opacity:1;fill-rule:nonzero;stroke:none"
           id="path302"
           inkscape:connector-curvature="0" />
      </g>
    </g>
  </g>
</svg>
