<svg xmlns="http://www.w3.org/2000/svg" viewBox="0 0 702.26 702.26">
    <defs>
        <style>
            .cls-1 {
                fill:#efefef;
            }

            .cls-2 {
                fill: #fff;
            }

        </style>
    </defs>
    <title>gear--3</title>
    <g id="レイヤー_2" data-name="レイヤー 2">
        <g id="レイヤー_1-2" data-name="レイヤー 1">
            <g id="gear--3">
                <path class="cls-1"
                    d="M583.16,531.59c-99.67,128.15-284.35,151.23-412.49,51.57S19.44,298.81,119.1,170.67,403.45,19.44,531.6,119.1s151.22,284.35,51.56,412.49" />
                <path class="cls-2"
                    d="M529.61,490C453,588.52,310.89,606.28,212.31,529.61S96,310.88,172.65,212.31,391.38,96,490,172.65,606.28,391.37,529.61,490" />
                <polygon class="cls-1" points="545.6 177.41 471.63 119.88 549.46 59.71 584.76 87.17 545.6 177.41" />
                <polygon class="cls-1" points="582.38 471.63 524.85 545.6 615.1 584.76 642.55 549.46 582.38 471.63" />
                <polygon class="cls-1" points="156.66 524.85 230.63 582.38 152.8 642.55 117.5 615.1 156.66 524.85" />
                <polygon class="cls-1" points="119.88 230.63 177.41 156.66 87.17 117.5 59.71 152.8 119.88 230.63" />
                <polygon class="cls-1" points="612.01 365.74 600.39 272.75 696.71 285.4 702.26 329.77 612.01 365.74" />
                <polygon class="cls-1" points="429.51 600.39 336.52 612.01 372.49 702.26 416.86 696.71 429.51 600.39" />
                <polygon class="cls-1" points="90.25 336.52 101.87 429.5 5.55 416.86 0 372.49 90.25 336.52" />
                <polygon class="cls-1" points="272.75 101.87 365.74 90.25 329.77 0 285.4 5.55 272.75 101.87" />
                <polygon class="cls-1" points="598.29 266.39 552.5 184.63 646.5 160.06 668.35 199.07 598.29 266.39" />
                <polygon class="cls-1" points="517.63 552.5 435.87 598.29 503.19 668.35 542.2 646.5 517.63 552.5" />
                <polygon class="cls-1" points="103.97 435.87 149.76 517.62 55.77 542.2 33.91 503.18 103.97 435.87" />
                <polygon class="cls-1" points="184.64 149.76 266.39 103.97 199.08 33.91 160.06 55.76 184.64 149.76" />
                <polygon class="cls-1" points="585.82 465.98 611.25 375.79 695.09 424.88 682.96 467.92 585.82 465.98" />
                <polygon class="cls-1" points="326.47 611.25 236.28 585.82 234.34 682.96 277.38 695.09 326.47 611.25" />
                <polygon class="cls-1" points="116.44 236.28 91.01 326.47 7.17 277.38 19.3 234.34 116.44 236.28" />
                <polygon class="cls-1" points="375.79 91.01 465.98 116.44 467.92 19.3 424.88 7.17 375.79 91.01" />
                <path class="cls-1"
                    d="M254,331.06a95.5,95.5,0,1,1,74,113A95.61,95.61,0,0,1,254,331.06Zm52.07,10.84a42.32,42.32,0,1,0,50.05-32.8A42.37,42.37,0,0,0,306.09,341.9Z" />
            </g>
        </g>
    </g>
</svg>