<svg xmlns="http://www.w3.org/2000/svg" viewBox="0 0 612.06 612.06">
    <defs>
        <style>
            .cls-1 {
                fill:#efefef;
            }

            .cls-2 {
                fill: #fff;
            }
        </style>
    </defs>
    <title>gear--2</title>
    <g id="レイヤー_2" data-name="レイヤー 2">
        <g id="レイヤー_1-2" data-name="レイヤー 1">
            <g id="gear--2">
                <path class="cls-1"
                    d="M532.92,424.25c-65.29,125.3-219.8,174-345.1,108.67s-174-219.8-108.68-345.11,219.8-174,345.11-108.67,174,219.8,108.67,345.11" />
                <path class="cls-2"
                    d="M480.56,397c-50.22,96.39-169.07,133.81-265.46,83.59S81.28,311.49,131.5,215.1,300.58,81.28,397,131.5,530.78,300.58,480.56,397" />
                <polygon class="cls-1" points="445.23 127.13 372.9 89.45 430.41 25.2 464.93 43.19 445.23 127.13" />
                <polygon class="cls-1" points="522.61 372.9 484.93 445.22 568.88 464.93 586.86 430.41 522.61 372.9" />
                <polygon class="cls-1" points="166.99 484.63 239.32 522.32 181.81 586.57 147.29 568.58 166.99 484.63" />
                <polygon class="cls-1" points="89.75 239.32 127.43 166.99 43.48 147.29 25.5 181.81 89.75 239.32" />
                <polygon class="cls-1" points="531.68 277.73 507.18 199.94 591.63 195.69 603.32 232.82 531.68 277.73" />
                <polygon class="cls-1" points="412.13 507.18 334.33 531.68 379.25 603.33 416.37 591.63 412.13 507.18" />
                <polygon class="cls-1" points="80.39 334.33 104.88 412.13 20.43 416.37 8.74 379.24 80.39 334.33" />
                <polygon class="cls-1" points="199.94 104.88 277.73 80.39 232.82 8.74 195.69 20.43 199.94 104.88" />
                <polygon class="cls-1" points="504.4 194.81 452.4 131.98 529.03 96.24 553.85 126.22 504.4 194.81" />
                <polygon class="cls-1" points="480.08 452.4 417.25 504.39 485.84 553.85 515.83 529.03 480.08 452.4" />
                <polygon class="cls-1" points="107.67 417.25 159.66 480.08 83.03 515.82 58.22 485.84 107.67 417.25" />
                <polygon class="cls-1" points="131.98 159.66 194.81 107.67 126.22 58.22 96.24 83.03 131.98 159.66" />
                <polygon class="cls-1" points="524.94 367.65 532.6 286.46 612.06 315.37 608.41 354.12 524.94 367.65" />
                <polygon class="cls-1" points="325.61 532.6 244.41 524.94 257.94 608.41 296.69 612.06 325.61 532.6" />
                <polygon class="cls-1" points="87.13 244.41 79.46 325.61 0 296.69 3.66 257.94 87.13 244.41" />
                <polygon class="cls-1" points="286.46 79.46 367.65 87.12 354.12 3.66 315.37 0 286.46 79.46" />
                <path class="cls-2" d="M247.54,293.86a59.74,59.74,0,1,0,70.67-46.32A59.74,59.74,0,0,0,247.54,293.86Z" />
                <path class="cls-1"
                    d="M306.1,389.06h0A83,83,0,1,1,387.3,323,83.17,83.17,0,0,1,306.09,389.06ZM306,269.54a36.49,36.49,0,1,0,35.77,43.93,36.48,36.48,0,0,0-28.27-43.15A37.31,37.31,0,0,0,306,269.54Z" />
            </g>
        </g>
    </g>
</svg>